<svg xmlns="http://www.w3.org/2000/svg" viewBox="0 0 500 300">
  <!-- Modern Ergonomic Controller Body - with slightly squarer top and longer grips -->
  <path d="M130,110 C100,130 90,150 90,170 C90,210 110,235 140,245 C170,255 190,245 215,235 
          C230,230 270,230 285,235 C310,245 330,255 360,245 C390,235 410,210 410,170 
          C410,150 400,130 370,110 C350,100 320,95 250,95 C180,95 150,100 130,110 Z" 
        fill="#e0e0e0" stroke="#000000" stroke-width="2"/>
  
  <!-- D-Pad - Modern cross shape, vertically aligned with face buttons -->
  <path d="M130,160 L150,160 L150,140 L170,140 L170,160 L190,160 L190,180 L170,180 L170,200 L150,200 L150,180 L130,180 Z" 
        fill="white" stroke="#000000" stroke-width="2.25"/>
  
  <!-- Four Face Buttons - with improved even spacing -->
  <circle cx="332" cy="175" r="10" fill="white" stroke="#000000" stroke-width="2.25"/>
  <circle cx="358" cy="149" r="10" fill="white" stroke="#000000" stroke-width="2.25"/>
  <circle cx="358" cy="201" r="10" fill="white" stroke="#000000" stroke-width="2.25"/>
  <circle cx="384" cy="175" r="10" fill="white" stroke="#000000" stroke-width="2.25"/>
  
  <!-- Center Button - pill shaped but fatter (now positioned above) -->
  <rect x="235" y="130" width="30" height="12" rx="6" ry="6" fill="white" stroke="#000000" stroke-width="2.25"/>
  
  <!-- Start Button - 30% bigger and centered vertically -->
  <rect x="215" y="165" width="20" height="10" rx="5" ry="5" fill="white" stroke="#000000" stroke-width="2.25"/>
  
  <!-- Select Button - 30% bigger and centered vertically -->
  <rect x="265" y="165" width="20" height="10" rx="5" ry="5" fill="white" stroke="#000000" stroke-width="2.25"/>
</svg>
